<svg width="64" height="64" viewBox="0 0 64 64" fill="none" xmlns="http://www.w3.org/2000/svg">
<path d="M60.16 32.6666C60.16 30.5866 59.9733 28.5866 59.6267 26.6666H32V38.0133H47.7867C47.1067 41.68 45.04 44.7866 41.9333 46.8666V54.2266H51.4133C56.96 49.12 60.16 41.6 60.16 32.6666Z" fill="#4285F4"/>
<path d="M32 61.3334C39.92 61.3334 46.56 58.7067 51.4133 54.2267L41.9333 46.8667C39.3066 48.6267 35.9466 49.6667 32 49.6667C24.36 49.6667 17.8933 44.5067 15.5866 37.5734H5.78662V45.1734C10.6133 54.76 20.5333 61.3334 32 61.3334Z" fill="#34A853"/>
<path d="M15.5868 37.5733C15.0001 35.8133 14.6668 33.9333 14.6668 32C14.6668 30.0667 15.0001 28.1867 15.5868 26.4267V18.8267H5.78675C3.73341 22.9143 2.66494 27.4256 2.66675 32C2.66675 36.7333 3.80008 41.2133 5.78675 45.1733L15.5868 37.5733Z" fill="#FBBC05"/>
<path d="M32 14.3333C36.3066 14.3333 40.1733 15.8133 43.2133 18.72L51.6266 10.3066C46.5466 5.57329 39.9066 2.66663 32 2.66663C20.5333 2.66663 10.6133 9.23996 5.78662 18.8266L15.5866 26.4266C17.8933 19.4933 24.36 14.3333 32 14.3333Z" fill="#EA4335"/>
</svg>
